<svg width="56" height="56" viewBox="0 0 56 56" fill="none" xmlns="http://www.w3.org/2000/svg">
<path fill-rule="evenodd" clip-rule="evenodd" d="M26.8337 19.8333C26.8337 21.9239 26.0473 23.8326 24.7547 25.2769C26.5691 26.5675 27.9262 28.4014 28.6301 30.5137C29.3341 32.6261 29.3483 34.9075 28.6707 37.0285C27.9932 39.1494 26.6589 41.0001 24.8607 42.3131C23.0626 43.6262 20.8935 44.3336 18.667 44.3333H8.16699C7.23873 44.3333 6.3485 43.9645 5.69212 43.3081C5.03574 42.6517 4.66699 41.7615 4.66699 40.8333L4.66699 12.8333C4.66699 11.905 5.03574 11.0148 5.69212 10.3584C6.3485 9.702 7.23873 9.33325 8.16699 9.33325H17.5003C19.9757 9.33325 22.3497 10.3166 24.1 12.0669C25.8503 13.8173 26.8337 16.1912 26.8337 18.6666V19.8333ZM9.33366 23.3333V13.9999H17.5003C18.738 13.9999 19.925 14.4916 20.8002 15.3668C21.6753 16.2419 22.167 17.4289 22.167 18.6666V19.8333C22.167 20.7615 21.7982 21.6517 21.1419 22.3081C20.4855 22.9645 19.5953 23.3333 18.667 23.3333H9.33366ZM9.33366 27.9999H18.667C20.2141 27.9999 21.6978 28.6145 22.7918 29.7085C23.8857 30.8024 24.5003 32.2862 24.5003 33.8333C24.5003 35.3803 23.8857 36.8641 22.7918 37.958C21.6978 39.052 20.2141 39.6666 18.667 39.6666H9.33366L9.33366 27.9999Z" fill="#00CCCC"/>
<path d="M35 14.0001C35 13.3812 35.2458 12.7878 35.6834 12.3502C36.121 11.9126 36.7145 11.6667 37.3333 11.6667H45.5C46.1188 11.6667 46.7123 11.9126 47.1499 12.3502C47.5875 12.7878 47.8333 13.3812 47.8333 14.0001C47.8333 14.6189 47.5875 15.2124 47.1499 15.65C46.7123 16.0876 46.1188 16.3334 45.5 16.3334H37.3333C36.7145 16.3334 36.121 16.0876 35.6834 15.65C35.2458 15.2124 35 14.6189 35 14.0001Z" fill="#00CCCC"/>
<path fill-rule="evenodd" clip-rule="evenodd" d="M41.417 18.6667C34.788 18.6667 29.167 23.7581 29.167 30.3334V32.6667C29.167 39.2421 34.788 44.3334 41.417 44.3334C44.952 44.3334 47.5117 43.3161 49.2267 42.2101C50.258 41.5474 51.0677 40.7401 51.847 39.8114C52.1861 39.3022 52.3116 38.6801 52.1964 38.0792C52.0813 37.4783 51.7348 36.9467 51.2315 36.5988C50.7282 36.2509 50.1084 36.1146 49.5056 36.2193C48.9028 36.324 48.3652 36.6612 48.0087 37.1584C47.6384 37.6044 47.1969 37.986 46.702 38.2878C45.6963 38.9341 44.0047 39.6668 41.417 39.6668C37.0933 39.6668 33.8337 36.4001 33.8337 32.6667H51.3337C51.9525 32.6667 52.546 32.4209 52.9836 31.9833C53.4212 31.5457 53.667 30.9523 53.667 30.3334C53.667 23.7581 48.046 18.6667 41.417 18.6667ZM48.564 28.0001C47.5373 25.3377 44.8027 23.3334 41.417 23.3334C38.0313 23.3334 35.2967 25.3377 34.27 28.0001H48.564Z" fill="#00CCCC"/>
</svg>
