<svg width="72" height="72" viewBox="0 0 72 72" fill="none" xmlns="http://www.w3.org/2000/svg">
<g clip-path="url(#clip0)">
<path d="M51 15.6667H42.6667C42.6667 11.9896 39.6771 9 36 9C32.3229 9 29.3333 11.9896 29.3333 15.6667H21C18.2396 15.6667 16 17.9062 16 20.6667V57.3333C16 60.0937 18.2396 62.3333 21 62.3333H51C53.7604 62.3333 56 60.0937 56 57.3333V20.6667C56 17.9062 53.7604 15.6667 51 15.6667ZM36 13.1667C37.3854 13.1667 38.5 14.2812 38.5 15.6667C38.5 17.0521 37.3854 18.1667 36 18.1667C34.6146 18.1667 33.5 17.0521 33.5 15.6667C33.5 14.2812 34.6146 13.1667 36 13.1667ZM48.625 37.3125L33.7292 52.0833C33.2396 52.5729 32.4479 52.5625 31.9583 52.0729L23.3542 43.3958C22.8646 42.9062 22.875 42.1146 23.3646 41.625L26.3229 38.6875C26.8125 38.1979 27.6042 38.2083 28.0938 38.6979L32.8854 43.5312L43.9271 32.5729C44.4167 32.0833 45.2083 32.0937 45.6979 32.5833L48.6354 35.5417C49.125 36.0417 49.1146 36.8229 48.625 37.3125Z" fill="#00CCCC"/>
</g>
<defs>
<clipPath id="clip0">
<rect width="40" height="53.3333" fill="white" transform="translate(16 9)"/>
</clipPath>
</defs>
</svg>
