<svg width="72" height="72" viewBox="0 0 72 72" fill="none" xmlns="http://www.w3.org/2000/svg">
<path d="M32.791 55.958L28.0254 54.5752C27.5254 54.4346 27.2441 53.9112 27.3848 53.4112L38.0488 16.6768C38.1895 16.1768 38.7129 15.8955 39.2129 16.0362L43.9785 17.419C44.4785 17.5596 44.7598 18.083 44.6191 18.583L33.9551 55.3174C33.8066 55.8174 33.291 56.1065 32.791 55.958ZM23.8848 47.1924L27.2832 43.5674C27.6426 43.1846 27.6191 42.5752 27.2207 42.2237L20.1426 35.9971L27.2207 29.7705C27.6191 29.419 27.6504 28.8096 27.2832 28.4268L23.8848 24.8018C23.5332 24.4268 22.9395 24.4033 22.5566 24.7627L11.2988 35.3096C10.9004 35.6768 10.9004 36.3096 11.2988 36.6768L22.5566 47.2315C22.9395 47.5908 23.5332 47.5752 23.8848 47.1924ZM49.4473 47.2393L60.7051 36.6846C61.1035 36.3174 61.1035 35.6846 60.7051 35.3174L49.4473 24.7549C49.0723 24.4033 48.4785 24.419 48.1191 24.794L44.7207 28.419C44.3613 28.8018 44.3848 29.4112 44.7832 29.7627L51.8613 35.9971L44.7832 42.2237C44.3848 42.5752 44.3535 43.1846 44.7207 43.5674L48.1191 47.1924C48.4707 47.5752 49.0645 47.5908 49.4473 47.2393Z" fill="#00CCCC"/>
</svg>
