<svg width="50" height="49" viewBox="0 0 50 49" fill="none" xmlns="http://www.w3.org/2000/svg">
<path d="M36.0671 15.6699C39.0145 15.6699 41.8412 14.7918 43.9253 13.2287C46.0095 11.6656 47.1803 9.54553 47.1803 7.33496C47.1803 5.12439 46.0095 3.00436 43.9253 1.44125C41.8412 -0.121855 39.0145 -1 36.0671 -1L13.8405 -1C10.8948 -1 8.06975 -0.122369 5.98682 1.43982C3.9039 3.00202 2.73373 5.1208 2.73373 7.33008C2.73373 9.53935 3.9039 11.6581 5.98682 13.2203C8.06975 14.7825 10.8948 15.6602 13.8405 15.6602C10.8931 15.6602 8.06637 16.5383 5.98222 18.1014C3.89808 19.6645 2.72722 21.7845 2.72722 23.9951C2.72722 26.2057 3.89808 28.3257 5.98222 29.8888C8.06637 31.4519 10.8931 32.3301 13.8405 32.3301C11.6425 32.3291 9.49348 32.817 7.66519 33.7321C5.83691 34.6471 4.41148 35.9482 3.56915 37.4709C2.72682 38.9935 2.50543 40.6693 2.93298 42.2863C3.36052 43.9033 4.4178 45.3889 5.97111 46.5553C7.52442 47.7216 9.504 48.5163 11.6595 48.8389C13.815 49.1614 16.0497 48.9974 18.0808 48.3674C20.112 47.7374 21.8485 46.6699 23.0707 45.2998C24.2929 43.9296 24.946 42.3184 24.9473 40.6699V15.6699H36.0671ZM36.0671 15.6699C33.8703 15.6699 31.723 16.1585 29.8965 17.0738C28.07 17.9891 26.6464 19.2901 25.8057 20.8122C24.9651 22.3343 24.7451 24.0092 25.1737 25.6251C25.6023 27.241 26.6601 28.7253 28.2134 29.8903C29.7667 31.0552 31.7457 31.8486 33.9002 32.17C36.0547 32.4914 38.2879 32.3265 40.3174 31.696C42.3469 31.0655 44.0816 29.9978 45.302 28.6279C46.5224 27.2581 47.1738 25.6475 47.1738 24C47.1735 21.7908 46.0032 19.6722 43.9204 18.11C41.8375 16.5479 39.0127 15.6702 36.0671 15.6699Z" fill="#00CCCC"/>
</svg>
