<svg width="56" height="56" viewBox="0 0 56 56" fill="none" xmlns="http://www.w3.org/2000/svg">
<path fill-rule="evenodd" clip-rule="evenodd" d="M4.66699 14.0001C4.66699 11.5247 5.65032 9.15076 7.40066 7.40042C9.151 5.65008 11.525 4.66675 14.0003 4.66675L42.0003 4.66675C44.4757 4.66675 46.8496 5.65008 48.6 7.40042C50.3503 9.15076 51.3337 11.5247 51.3337 14.0001V42.0001C51.3337 44.4754 50.3503 46.8494 48.6 48.5997C46.8496 50.3501 44.4757 51.3334 42.0003 51.3334H14.0003C11.525 51.3334 9.151 50.3501 7.40066 48.5997C5.65032 46.8494 4.66699 44.4754 4.66699 42.0001L4.66699 14.0001ZM14.0003 9.33342C12.7626 9.33342 11.5757 9.82508 10.7005 10.7003C9.82532 11.5754 9.33366 12.7624 9.33366 14.0001L9.33366 42.0001C9.33366 43.2378 9.82532 44.4247 10.7005 45.2999C11.5757 46.1751 12.7626 46.6668 14.0003 46.6668H42.0003C43.238 46.6668 44.425 46.1751 45.3002 45.2999C46.1753 44.4247 46.667 43.2378 46.667 42.0001V14.0001C46.667 12.7624 46.1753 11.5754 45.3002 10.7003C44.425 9.82508 43.238 9.33342 42.0003 9.33342L14.0003 9.33342ZM28.0003 21.0001C26.1438 21.0001 24.3633 21.7376 23.0506 23.0503C21.7378 24.3631 21.0003 26.1436 21.0003 28.0001C21.0003 29.8566 21.7378 31.6371 23.0506 32.9498C24.3633 34.2626 26.1438 35.0001 28.0003 35.0001C29.8568 35.0001 31.6373 34.2626 32.9501 32.9498C34.2628 31.6371 35.0003 29.8566 35.0003 28.0001C35.0003 26.1436 34.2628 24.3631 32.9501 23.0503C31.6373 21.7376 29.8568 21.0001 28.0003 21.0001ZM16.3337 28.0001C16.3337 24.9059 17.5628 21.9384 19.7507 19.7505C21.9387 17.5626 24.9061 16.3334 28.0003 16.3334C31.0945 16.3334 34.062 17.5626 36.2499 19.7505C38.4378 21.9384 39.667 24.9059 39.667 28.0001C39.667 31.0943 38.4378 34.0617 36.2499 36.2497C34.062 38.4376 31.0945 39.6668 28.0003 39.6668C24.9061 39.6668 21.9387 38.4376 19.7507 36.2497C17.5628 34.0617 16.3337 31.0943 16.3337 28.0001ZM40.8337 18.6667C41.7619 18.6667 42.6522 18.298 43.3085 17.6416C43.9649 16.9852 44.3337 16.095 44.3337 15.1667C44.3337 14.2385 43.9649 13.3483 43.3085 12.6919C42.6522 12.0355 41.7619 11.6667 40.8337 11.6667C39.9054 11.6667 39.0152 12.0355 38.3588 12.6919C37.7024 13.3483 37.3337 14.2385 37.3337 15.1667C37.3337 16.095 37.7024 16.9852 38.3588 17.6416C39.0152 18.298 39.9054 18.6667 40.8337 18.6667Z" fill="#00CCCC"/>
</svg>
