<svg width="51" height="51" viewBox="0 0 51 51" fill="none" xmlns="http://www.w3.org/2000/svg">
<path d="M0.5 0.500366L0.5 50.5004H50.5V0.500366L0.5 0.500366ZM27.7098 39.4959C27.7098 44.362 24.8527 46.583 20.6897 46.583C16.9286 46.583 14.7522 44.641 13.6362 42.2861L17.4643 39.9758C18.2009 41.2816 18.8705 42.3865 20.4888 42.3865C22.029 42.3865 23.0112 41.7838 23.0112 39.4289L23.0112 23.458H27.7098L27.7098 39.4959ZM38.8259 46.583C34.4621 46.583 31.6384 44.5071 30.2656 41.7838L34.0938 39.574C35.0982 41.2147 36.4152 42.4312 38.7254 42.4312C40.6674 42.4312 41.9174 41.4602 41.9174 40.1097C41.9174 38.5026 40.6451 37.9334 38.4911 36.9847L37.3192 36.4825C33.9263 35.0428 31.683 33.2236 31.683 29.3955C31.683 25.8687 34.3728 23.1901 38.558 23.1901C41.5491 23.1901 43.692 24.228 45.2321 26.9513L41.5714 29.295C40.7679 27.8553 39.8973 27.2861 38.5469 27.2861C37.1741 27.2861 36.3036 28.1566 36.3036 29.295C36.3036 30.7013 37.1741 31.2705 39.1942 32.1522L40.3661 32.6544C44.3616 34.362 46.6049 36.1142 46.6049 40.0428C46.6049 44.2615 43.279 46.583 38.8259 46.583Z" fill="#00CCCC"/>
</svg>
