<svg width="72" height="72" viewBox="0 0 72 72" fill="none" xmlns="http://www.w3.org/2000/svg">
<g clip-path="url(#clip0)">
<path d="M25.4994 47H41.9994C46.5541 47 50.2494 43.3047 50.2494 38.75H52.9994C59.0666 38.75 63.9994 33.8172 63.9994 27.75C63.9994 21.6828 59.0666 16.75 52.9994 16.75H19.3119C18.169 16.75 17.2494 17.6695 17.2494 18.8125V38.75C17.2494 43.3047 20.9447 47 25.4994 47ZM52.9994 22.25C56.033 22.25 58.4994 24.7164 58.4994 27.75C58.4994 30.7836 56.033 33.25 52.9994 33.25H50.2494V22.25H52.9994ZM57.0987 55.25H13.1502C9.05959 55.25 7.90803 49.75 10.0565 49.75H60.1838C62.3322 49.75 61.1979 55.25 57.0987 55.25Z" fill="#00CCCC"/>
</g>
<defs>
<clipPath id="clip0">
<rect width="55" height="44" fill="none" transform="translate(9 14)"/>
</clipPath>
</defs>
</svg>
