<svg width="72" height="72" viewBox="0 0 72 72" fill="none" xmlns="http://www.w3.org/2000/svg">
<g clip-path="url(#clip0)">
<path d="M60.3281 12.8646C60.212 12.3245 59.6779 11.7904 59.1361 11.6744C55.9918 11 53.53 11 51.0789 11C40.9976 11 34.9521 16.3909 30.4387 23.5H20.2615C18.665 23.5015 16.7892 24.6597 16.0733 26.0864L11.2457 35.736C11.0965 36.0651 11.013 36.4202 11 36.7812C11.0002 37.4029 11.2473 37.999 11.6869 38.4385C12.1265 38.878 12.7227 39.1249 13.3443 39.125H23.482L21.2873 41.3192C20.1774 42.4287 20.0181 44.4694 21.2873 45.7382L26.2584 50.7095C27.3479 51.802 29.3986 51.9943 30.68 50.7095L32.8748 48.5153V58.6562C32.875 59.2779 33.1221 59.874 33.5617 60.3135C34.0013 60.753 34.5975 60.9999 35.2191 61C35.5802 60.9866 35.9354 60.9032 36.2647 60.7543L45.9061 55.931C47.3347 55.2184 48.4948 53.3431 48.4948 51.7455V41.5466C55.5844 37.0239 60.9982 30.96 60.9982 20.9319C61.0073 18.4707 61.0073 16.0095 60.3281 12.8646ZM48.5039 27.4062C47.7314 27.4061 46.9763 27.1768 46.334 26.7475C45.6917 26.3181 45.1912 25.708 44.8957 24.9942C44.6002 24.2804 44.523 23.495 44.6738 22.7373C44.8246 21.9797 45.1967 21.2837 45.7431 20.7375C46.2894 20.1913 46.9854 19.8194 47.7432 19.6687C48.5009 19.5181 49.2862 19.5955 50 19.8912C50.7137 20.1869 51.3237 20.6875 51.7529 21.3299C52.1821 21.9723 52.4111 22.7275 52.4111 23.5C52.4105 24.536 51.9987 25.5293 51.266 26.2618C50.5334 26.9943 49.5399 27.4059 48.5039 27.4062Z" fill="#00CCCC"/>
</g>
<defs>
<clipPath id="clip0">
<rect width="50" height="50" fill="white" transform="translate(11 11)"/>
</clipPath>
</defs>
</svg>
