<svg width="56" height="56" viewBox="0 0 56 56" fill="none" xmlns="http://www.w3.org/2000/svg">
<path fill-rule="evenodd" clip-rule="evenodd" d="M14.0003 4.66675C11.525 4.66675 9.151 5.65008 7.40066 7.40042C5.65032 9.15076 4.66699 11.5247 4.66699 14.0001L4.66699 42.0001C4.66699 44.4754 5.65032 46.8494 7.40066 48.5997C9.151 50.3501 11.525 51.3334 14.0003 51.3334H42.0003C44.4757 51.3334 46.8496 50.3501 48.6 48.5997C50.3503 46.8494 51.3337 44.4754 51.3337 42.0001V14.0001C51.3337 11.5247 50.3503 9.15076 48.6 7.40042C46.8496 5.65008 44.4757 4.66675 42.0003 4.66675L14.0003 4.66675ZM9.33366 14.0001C9.33366 12.7624 9.82532 11.5754 10.7005 10.7003C11.5757 9.82508 12.7626 9.33342 14.0003 9.33342L42.0003 9.33342C43.238 9.33342 44.425 9.82508 45.3002 10.7003C46.1753 11.5754 46.667 12.7624 46.667 14.0001V42.0001C46.667 43.2378 46.1753 44.4247 45.3002 45.2999C44.425 46.1751 43.238 46.6668 42.0003 46.6668H14.0003C12.7626 46.6668 11.5757 46.1751 10.7005 45.2999C9.82532 44.4247 9.33366 43.2378 9.33366 42.0001L9.33366 14.0001ZM21.0003 25.6667C21.0003 25.0479 20.7545 24.4544 20.3169 24.0168C19.8793 23.5792 19.2858 23.3334 18.667 23.3334C18.0482 23.3334 17.4547 23.5792 17.0171 24.0168C16.5795 24.4544 16.3337 25.0479 16.3337 25.6667V39.6668C16.3337 40.2856 16.5795 40.8791 17.0171 41.3167C17.4547 41.7543 18.0482 42.0001 18.667 42.0001C19.2858 42.0001 19.8793 41.7543 20.3169 41.3167C20.7545 40.8791 21.0003 40.2856 21.0003 39.6668L21.0003 25.6667ZM22.167 17.5001C22.167 18.4283 21.7982 19.3186 21.1419 19.975C20.4855 20.6313 19.5952 21.0001 18.667 21.0001C17.7387 21.0001 16.8485 20.6313 16.1921 19.975C15.5357 19.3186 15.167 18.4283 15.167 17.5001C15.167 16.5718 15.5357 15.6816 16.1921 15.0252C16.8485 14.3688 17.7387 14.0001 18.667 14.0001C19.5952 14.0001 20.4855 14.3688 21.1419 15.0252C21.7982 15.6816 22.167 16.5718 22.167 17.5001ZM28.0003 23.3334C28.7937 23.3334 29.4937 23.7301 29.9137 24.3321C31.1163 23.6767 32.464 23.3333 33.8337 23.3334C38.8737 23.3334 42.0003 27.8274 42.0003 31.6658V39.6668C42.0003 40.2856 41.7545 40.8791 41.3169 41.3167C40.8793 41.7543 40.2858 42.0001 39.667 42.0001C39.0482 42.0001 38.4547 41.7543 38.0171 41.3167C37.5795 40.8791 37.3337 40.2856 37.3337 39.6668V31.6634C37.3337 29.8714 35.7937 27.9977 33.8337 27.9977C32.611 27.9977 31.26 28.6628 30.3337 30.2447L30.3337 39.6668C30.3337 40.2856 30.0878 40.8791 29.6502 41.3167C29.2127 41.7543 28.6192 42.0001 28.0003 42.0001C27.3815 42.0001 26.788 41.7543 26.3504 41.3167C25.9128 40.8791 25.667 40.2856 25.667 39.6668L25.667 25.6667C25.667 25.0479 25.9128 24.4544 26.3504 24.0168C26.788 23.5792 27.3815 23.3334 28.0003 23.3334Z" fill="#00CCCC"/>
</svg>
