<svg width="50" height="50" viewBox="0 0 50 50" fill="none" xmlns="http://www.w3.org/2000/svg">
<path fill-rule="evenodd" clip-rule="evenodd" d="M32.049 0.114033L3.14306 2.156C0.812326 2.34967 0 3.80833 0 5.557V35.886C0 37.2487 0.50625 38.4133 1.72396 39.97L8.51892 48.4272C9.63507 49.789 10.6493 50.0803 12.7806 49.9828L46.3488 48.0383C49.1878 47.8448 50 46.5802 50 44.4417V10.3208C50 9.21533 49.5441 8.896 48.2 7.95467C48.126 7.903 48.0493 7.84933 47.97 7.7935L38.7429 1.5723C36.5118 0.0175993 35.5986 -0.178034 32.049 0.114033ZM13.5417 9.76116C10.801 9.93866 10.1783 9.979 8.62187 8.766L4.66406 5.75267C4.26042 5.363 4.46285 4.877 5.47639 4.7805L33.2661 2.83617C35.5981 2.64133 36.8149 3.42033 37.7281 4.10033L42.4946 7.40583C42.6976 7.50266 43.2038 8.08516 42.595 8.08516L13.8955 9.73833L13.5417 9.76116ZM10.345 44.1495V15.1822C10.345 13.9187 10.7507 13.335 11.967 13.2368L44.9274 11.3905C46.0455 11.2933 46.5517 11.9743 46.5517 13.2368V42.01C46.5517 43.2747 46.3483 44.3453 44.522 44.4417L12.9814 46.1925C11.1561 46.2888 10.345 45.7063 10.345 44.1495ZM41.4819 16.736C41.6842 17.6118 41.4819 18.4867 40.5674 18.5852L39.0476 18.8757V40.2612C37.7281 40.9415 36.5115 41.3305 35.4976 41.3305C33.8743 41.3305 33.4677 40.844 32.2519 39.3867L22.3113 24.4167V38.9007L25.4568 39.5815C25.4568 39.5815 25.4568 41.3305 22.9191 41.3305L15.9229 41.7198C15.7196 41.3305 15.9229 40.3592 16.6325 40.1645L18.4582 39.6792V20.5287L15.9233 20.3338C15.72 19.4582 16.2262 18.1955 17.6472 18.0975L25.1526 17.6122L35.4976 32.777V19.3617L32.8601 19.0713C32.6575 18.0007 33.4677 17.2233 34.4821 17.1268L41.4819 16.736Z" fill="#00CCCC"/>
</svg>
