<svg width="50" height="49" viewBox="0 0 50 49" fill="none" xmlns="http://www.w3.org/2000/svg">
<path d="M0 0V48.75H50V0H0ZM2.08333 2.08333H47.9167V46.6667H2.08333V2.08333ZM12.9792 11.4167C12.9792 11.2708 13.0208 11.1667 13.1875 11.1667C14.5208 11.1042 16.4792 11.0625 18.5417 11.0625C24.3125 11.0625 26.8333 14.2292 26.8333 18.2917C26.8333 23.5833 23 25.8542 18.2917 25.8542C17.5 25.8542 17.2292 25.8125 16.6667 25.8125V33.8125C16.6667 33.9792 16.6042 34.0625 16.4167 34.0625H13.2083C13.0417 34.0625 12.9583 34 12.9583 33.8125C12.9583 33.8125 12.9583 11.4167 12.9792 11.4167ZM16.6667 22.4792C17.1458 22.5208 17.5208 22.5208 18.3542 22.5208C20.7917 22.5208 23.0833 21.6667 23.0833 18.3542C23.0833 15.7083 21.4583 14.375 18.6667 14.375C17.8333 14.375 17.0417 14.4167 16.6667 14.4375V22.4792ZM30 20.5833C30 20.3333 30 19.7292 29.8958 18.5625C29.8958 18.3958 29.9167 18.3542 30.0625 18.2917C31.3333 17.7708 34.3125 16.8542 37.6875 16.8542C37.8542 16.8542 37.9375 16.8958 37.9375 17.0625V20.0833C37.9375 20.25 37.875 20.2917 37.7083 20.2917C36.3958 20.2292 34.5 20.3958 33.7708 20.7083V33.8333C33.7708 34 33.7083 34.0833 33.5208 34.0833H30.25C30.0833 34.0833 30 34.0208 30 33.8333V20.5833Z" fill="#00CCCC"/>
</svg>
