<svg width="72" height="72" viewBox="0 0 72 72" fill="none" xmlns="http://www.w3.org/2000/svg">
<path d="M56.8333 14H15.1667C12.8663 14 11 15.8663 11 18.1667V45.9444C11 48.2448 12.8663 50.1111 15.1667 50.1111H31.8333L30.4444 54.2778H24.1944C23.0399 54.2778 22.1111 55.2066 22.1111 56.3611C22.1111 57.5156 23.0399 58.4444 24.1944 58.4444H47.8056C48.9601 58.4444 49.8889 57.5156 49.8889 56.3611C49.8889 55.2066 48.9601 54.2778 47.8056 54.2778H41.5556L40.1667 50.1111H56.8333C59.1337 50.1111 61 48.2448 61 45.9444V18.1667C61 15.8663 59.1337 14 56.8333 14ZM55.4444 44.5556H16.5556V19.5556H55.4444V44.5556Z" fill="#00CCCC"/>
</svg>
