<svg width="50" height="50" viewBox="0 0 50 50" fill="none" xmlns="http://www.w3.org/2000/svg">
<g clip-path="url(#clip0)">
<path d="M13.3398 13.5525C12.359 13.8297 11.4609 14.3426 10.7237 15.0464C9.98655 15.7502 9.43267 16.6236 9.11035 17.5906L0 44.9206L1.43457 46.3552L16.0938 31.696C15.8018 31.0847 15.625 30.4089 15.625 29.6863C15.625 27.0974 17.7236 24.9988 20.3125 24.9988C22.9014 24.9988 25 27.0974 25 29.6863C25 32.2751 22.9014 34.3738 20.3125 34.3738C19.5898 34.3738 18.9141 34.197 18.3027 33.905L3.64355 48.5642L5.07812 49.9988L32.4082 40.8884C33.3751 40.5661 34.2485 40.0122 34.9524 39.275C35.6562 38.5378 36.1691 37.6397 36.4463 36.6589L40.625 21.8738L28.125 9.37376L13.3398 13.5525ZM48.627 7.24193L42.7568 1.37181C40.9258 -0.459244 37.9561 -0.459244 36.125 1.37181L30.6025 6.89427L43.1045 19.3962L48.627 13.8738C50.458 12.0427 50.458 9.07396 48.627 7.24193Z" fill="#00CCCC"/>
</g>
<defs>
<clipPath id="clip0">
<rect width="50" height="50" fill="none"/>
</clipPath>
</defs>
</svg>
