<svg width="72" height="72" viewBox="0 0 72 72" fill="none" xmlns="http://www.w3.org/2000/svg">
<g clip-path="url(#clip0)">
<path d="M24.3398 24.5525C23.359 24.8297 22.4609 25.3426 21.7237 26.0464C20.9865 26.7502 20.4327 27.6236 20.1104 28.5906L11 55.9206L12.4346 57.3552L27.0938 42.696C26.8018 42.0847 26.625 41.4089 26.625 40.6863C26.625 38.0974 28.7236 35.9988 31.3125 35.9988C33.9014 35.9988 36 38.0974 36 40.6863C36 43.2751 33.9014 45.3738 31.3125 45.3738C30.5898 45.3738 29.9141 45.197 29.3027 44.905L14.6436 59.5642L16.0781 60.9988L43.4082 51.8884C44.3751 51.5661 45.2485 51.0122 45.9524 50.275C46.6562 49.5378 47.1691 48.6397 47.4463 47.6589L51.625 32.8738L39.125 20.3738L24.3398 24.5525ZM59.627 18.2419L53.7568 12.3718C51.9258 10.5408 48.9561 10.5408 47.125 12.3718L41.6025 17.8943L54.1045 30.3962L59.627 24.8738C61.458 23.0427 61.458 20.074 59.627 18.2419Z" fill="#00CCCC"/>
</g>
<defs>
<clipPath id="clip0">
<rect width="50" height="50" fill="white" transform="translate(11 11)"/>
</clipPath>
</defs>
</svg>
