<svg width="50" height="49" viewBox="0 0 50 49" fill="none" xmlns="http://www.w3.org/2000/svg">
<path fill-rule="evenodd" clip-rule="evenodd" d="M8.85417 -1H41.1458C46.0417 -1 50 3.05983 50 8.0812V39.9188C50 44.9402 46.0417 49 41.1458 49H8.85417C3.95833 49 0 44.9402 0 39.9188V8.0812C0 3.05983 3.95833 -1 8.85417 -1ZM11.25 34.0641V12.0769C11.25 11.9273 11.3125 11.8418 11.4583 11.8418H11.4584C11.8125 11.8418 12.1459 11.8418 12.625 11.8205C12.8825 11.8095 13.1455 11.8041 13.4169 11.7986C13.6725 11.7934 13.9355 11.7881 14.2083 11.7777C14.4993 11.7667 14.8013 11.7613 15.1146 11.7558C15.4069 11.7506 15.709 11.7453 16.0208 11.735C16.6667 11.7136 17.2917 11.7136 17.9167 11.7136C19.625 11.7136 21.0417 11.9273 22.2083 12.376C23.25 12.7393 24.2083 13.3376 25 14.1282C25.6667 14.8119 26.1875 15.6452 26.5208 16.5641C26.8333 17.4615 27 18.3803 27 19.3418C27 21.1794 26.5833 22.6965 25.75 23.8931C24.9167 25.0897 23.75 25.9871 22.3958 26.4999C20.9792 27.0341 19.4167 27.2264 17.7083 27.2264C17.2083 27.2264 16.875 27.2264 16.6667 27.2051C16.4583 27.1837 16.1667 27.1837 15.7708 27.1837V34.0427C15.7917 34.1923 15.6875 34.3205 15.5417 34.3418H15.4583H11.5C11.3333 34.3418 11.25 34.2564 11.25 34.0641ZM15.7917 15.9658V23.1452L15.8541 23.1498C16.1221 23.1696 16.3721 23.188 16.6042 23.188H17.7083C18.5208 23.188 19.3333 23.0598 20.1042 22.8034C20.7708 22.6111 21.3542 22.2051 21.8125 21.6709C22.25 21.1367 22.4583 20.4102 22.4583 19.47C22.4792 18.8076 22.3125 18.1452 21.9792 17.5683C21.625 17.0128 21.125 16.5854 20.5208 16.3504C19.75 16.0299 18.9167 15.9017 18.0625 15.923C17.5208 15.923 17.0417 15.923 16.6458 15.9444C16.2292 15.923 15.9375 15.9444 15.7917 15.9658ZM38 21.1153C38.7083 21.2649 39.375 21.4999 40 21.8418C40.0833 21.8845 40.1875 21.8845 40.375 21.8418C40.4375 21.7991 40.4791 21.7136 40.4791 21.6281V18.1452C40.4791 18.0597 40.4583 17.9743 40.4375 17.8888C40.3958 17.8033 40.3125 17.7179 40.2291 17.6965C39.6666 17.4615 39.0625 17.2905 38.4375 17.205C37.5833 17.0768 36.7083 17.0127 35.8541 17.0127C34.375 17.0127 33.1458 17.2478 32.1666 17.7606C31.2708 18.1879 30.5 18.8717 29.9791 19.7264C29.5208 20.517 29.2708 21.3931 29.2708 22.3119C29.25 23.0597 29.4166 23.8076 29.75 24.4914C30.1458 25.2179 30.6875 25.8375 31.3333 26.3076C32.25 26.9486 33.2291 27.4615 34.2916 27.8461C35.3125 28.252 36 28.5726 36.3333 28.8503C36.6666 29.1281 36.8333 29.4059 36.8333 29.705C36.8333 30.0897 36.6041 30.4529 36.2708 30.6025C35.8958 30.7948 35.3333 30.9016 34.5416 30.9016C33.7083 30.9016 32.875 30.7948 32.0833 30.5811C31.1666 30.3674 30.3125 30.0256 29.5 29.5341C29.4375 29.4914 29.375 29.47 29.3125 29.5127C29.25 29.5555 29.2291 29.6409 29.2291 29.705V33.423C29.2083 33.5939 29.3125 33.7435 29.4583 33.829C30.125 34.1495 30.8541 34.3845 31.5833 34.5127C32.5208 34.705 33.4583 34.7905 34.4166 34.7905C35.9166 34.7905 37.1666 34.5555 38.1875 34.1068C39.125 33.7221 39.9375 33.0597 40.5208 32.205C41.0625 31.3717 41.3541 30.3674 41.3333 29.3632C41.3541 28.5939 41.1875 27.8461 40.8541 27.1623C40.4583 26.4358 39.8958 25.8375 39.2083 25.3888C38.2083 24.7478 37.125 24.2136 36 23.829C35.5 23.6153 35 23.3803 34.5208 23.1238C34.25 22.9743 34 22.782 33.8125 22.5469C33.6875 22.376 33.6041 22.1837 33.6041 21.9914C33.6041 21.7991 33.6666 21.5854 33.7708 21.4144C33.9166 21.2008 34.1458 21.0512 34.4166 20.9871C34.8125 20.8803 35.25 20.8162 35.6666 20.8375C36.4583 20.8375 37.2291 20.9444 38 21.1153Z" fill="#00CCCC"/>
</svg>
