<svg width="72" height="72" viewBox="0 0 72 72" fill="none" xmlns="http://www.w3.org/2000/svg">
<g clip-path="url(#clip0)">
<path d="M57.3848 51.9092L48.6221 43.1465C48.2266 42.751 47.6904 42.5312 47.1279 42.5312H45.6953C48.1211 39.4287 49.5625 35.5264 49.5625 31.2812C49.5625 21.1826 41.3799 13 31.2813 13C21.1826 13 13 21.1826 13 31.2812C13 41.3799 21.1826 49.5625 31.2813 49.5625C35.5264 49.5625 39.4287 48.1211 42.5313 45.6953V47.1279C42.5313 47.6904 42.751 48.2266 43.1465 48.6221L51.9092 57.3848C52.7354 58.2109 54.0713 58.2109 54.8887 57.3848L57.376 54.8975C58.2022 54.0713 58.2022 52.7354 57.3848 51.9092ZM31.2813 42.5312C25.0674 42.5312 20.0313 37.5039 20.0313 31.2812C20.0313 25.0674 25.0586 20.0312 31.2813 20.0312C37.4951 20.0312 42.5313 25.0586 42.5313 31.2812C42.5313 37.4951 37.5039 42.5312 31.2813 42.5312Z" fill="#00CCCC"/>
</g>
<defs>
<clipPath id="clip0">
<rect width="45" height="45" fill="none" transform="translate(13 13)"/>
</clipPath>
</defs>
</svg>
