<svg width="72" height="72" viewBox="0 0 72 72" fill="none" xmlns="http://www.w3.org/2000/svg">
<g clip-path="url(#clip0)">
<path d="M11.2597 25.0316L34.9176 35.7637C35.6083 36.0775 36.3893 36.0775 37.0799 35.7637L60.7379 25.0316C62.4187 24.2688 62.4187 21.7288 60.7379 20.966L37.0809 10.2329C36.7416 10.0778 36.3729 9.99753 35.9998 9.99753C35.6267 9.99753 35.258 10.0778 34.9187 10.2329L11.2597 20.965C9.57881 21.7277 9.57881 24.2688 11.2597 25.0316ZM60.7389 33.9975L54.8391 31.3234L38.4226 38.7648C37.6547 39.1132 36.8392 39.2899 35.9993 39.2899C35.1594 39.2899 34.3448 39.1132 33.576 38.7648L17.1604 31.3234L11.2597 33.9975C9.57881 34.7592 9.57881 37.2983 11.2597 38.06L34.9176 48.784C35.6083 49.0968 36.3893 49.0968 37.0799 48.784L60.7389 38.06C62.4197 37.2983 62.4197 34.7592 60.7389 33.9975ZM60.7389 46.9772L54.8615 44.3132L38.4226 51.7649C37.6547 52.1132 36.8392 52.2899 35.9993 52.2899C35.1594 52.2899 34.3448 52.1132 33.576 51.7649L17.1381 44.3132L11.2597 46.9772C9.57881 47.7389 9.57881 50.278 11.2597 51.0397L34.9176 61.7637C35.6083 62.0765 36.3893 62.0765 37.0799 61.7637L60.7389 51.0397C62.4197 50.278 62.4197 47.7389 60.7389 46.9772Z" fill="#00CCCC"/>
</g>
<defs>
<clipPath id="clip0">
<rect width="52" height="52" fill="white" transform="translate(10 10)"/>
</clipPath>
</defs>
</svg>
