<svg width="51" height="50" viewBox="0 0 51 50" fill="none" xmlns="http://www.w3.org/2000/svg">
<path d="M24.0812 37.8006C24.0578 37.8631 24.0344 37.9131 24.0812 37.8006V37.8006ZM43.5448 28.7389C41.9734 28.7382 40.423 29.2193 39.0135 30.145C38.5525 28.9055 38.0759 27.8223 37.9978 27.0099C37.9041 26.062 37.8025 25.4996 37.9119 24.3747C38.0213 23.2497 38.5134 21.6561 38.5056 21.5416C38.4978 21.427 38.3963 20.8541 37.3884 20.8437C36.3806 20.8333 35.5134 21.1041 35.4126 21.4582C35.2346 22.1054 35.0962 22.7707 34.9986 23.4476C34.8189 24.6663 32.9837 29.0201 31.9446 31.2908C31.6009 30.4054 31.3118 29.6242 31.2493 28.9993C31.1555 28.0514 31.054 27.489 31.1634 26.3641C31.2727 25.2392 31.7649 23.6455 31.7571 23.531C31.7493 23.4164 31.6477 22.8435 30.6407 22.8331C29.6337 22.8227 28.7657 23.0935 28.6641 23.4476C28.5625 23.8018 28.4532 24.635 28.25 25.4371C28.0469 26.2391 25.6024 33.4885 24.9625 35.3738C24.6344 36.332 24.3531 37.1028 24.15 37.6236C24.1187 37.7069 24.0953 37.759 24.0797 37.8006C24.1031 37.7486 24.1187 37.6965 24.1187 37.7173C23.9469 38.1652 23.8453 38.4152 23.8453 38.4152V38.4256C23.7125 38.7589 23.5641 39.061 23.4937 39.061C23.4469 39.061 23.3453 38.186 23.5172 36.9882C23.8844 34.4676 24.7516 30.5512 24.7438 30.4158C24.7359 30.3429 24.9078 29.6659 24.1734 29.3013C23.4625 28.9576 23.2047 29.5305 23.1422 29.5305C23.0797 29.5305 23.0328 29.7388 23.0328 29.7388C23.0328 29.7388 23.8219 25.3225 21.5179 25.3225C20.0804 25.3225 18.0804 27.4265 17.0976 29.3326C16.4804 29.7805 15.1444 30.7491 13.7382 31.7803C13.1991 32.1761 12.6444 32.5823 12.1209 32.9677C12.0819 32.9156 12.0506 32.8635 12.0116 32.8115C9.21545 28.8326 4.05289 26.0204 4.27164 20.677C4.34977 18.7293 4.85758 13.6151 14.1991 7.40729C21.8554 2.32437 27.9766 3.72009 29.0305 6.824C30.5462 11.2507 25.7578 19.4896 17.807 20.677C14.7764 21.1249 13.1835 19.5625 12.785 18.9793C12.371 18.3647 12.3085 18.3335 12.1522 18.4481C11.8944 18.6355 12.0584 19.1772 12.1522 19.5001C12.3866 20.3229 13.3632 21.7811 15.0265 22.5102C16.4874 23.1456 20.0406 23.4997 24.3367 21.2812C29.1633 18.8022 32.9204 11.8965 31.8188 6.11573C30.6969 0.241205 23.3906 -1.68572 16.4819 1.58485C12.3655 3.5326 7.91387 6.59485 4.71149 10.5841C0.907539 15.3337 0.298938 19.4688 0.548941 21.1978C1.4388 27.3327 7.78106 31.3324 10.3194 34.2905C10.1944 34.3843 10.0772 34.4676 9.9678 34.5509C8.69513 35.3946 3.85992 38.7693 2.64975 42.3315C1.28254 46.3729 2.87631 49.2685 3.92242 49.6643C7.1873 50.8725 10.5303 48.6956 12.3264 45.123C14.1225 41.5503 13.9046 36.8841 13.0764 34.7592C13.0686 34.728 13.053 34.7071 13.0452 34.6759C13.3733 34.4155 13.7093 34.1551 14.0452 33.8947C14.6929 33.3843 15.3257 32.9156 15.8804 32.5094C15.5679 33.6343 15.3413 34.9884 15.2241 36.9465C15.0835 39.238 15.7944 42.2065 16.7163 43.3731C17.1226 43.8835 17.614 43.8939 17.9187 43.8939C18.9968 43.8939 19.4812 42.7065 20.0195 41.2899C20.6835 39.5609 21.2695 37.5507 21.2695 37.5507C21.2695 37.5507 20.5351 42.9877 22.5429 42.9877C23.2765 42.9877 24.0109 41.7274 24.3398 41.0816V41.092C24.3398 41.092 24.3555 41.0504 24.3945 40.9671C24.4727 40.8108 24.5117 40.7171 24.5117 40.7171V40.6858C24.8086 40.0088 25.457 38.4568 26.4328 35.8946C27.6985 32.5823 28.9086 28.4472 28.9086 28.4472C29.0256 29.3562 29.1874 30.2539 29.393 31.1345C29.6118 32.124 30.0727 33.2073 30.4399 34.2593C30.143 34.8009 29.9633 35.1134 29.9633 35.1134C29.9639 35.1214 29.9667 35.1288 29.9712 35.1342C29.7368 35.5508 29.4712 35.9987 29.1977 36.4362C28.1985 38.0194 27.0102 39.8317 26.8539 40.3525C26.6664 40.9671 26.7133 41.4253 27.0727 41.7795C27.3383 42.0503 27.8071 42.092 28.2985 42.0399C29.1969 41.9566 29.8298 41.6649 30.1344 41.4774C30.6961 41.2089 31.227 40.8373 31.7118 40.3734C32.6884 39.4151 33.2821 38.0402 33.2274 36.2279C33.1962 35.2279 32.954 34.228 32.6571 33.2906C32.7431 33.1239 32.8368 32.9469 32.9228 32.7698C34.4689 29.7596 35.6642 26.4557 35.6642 26.4557C35.7811 27.3647 35.9429 28.2624 36.1486 29.143C36.3361 29.9867 36.7025 30.9137 37.0384 31.8199C35.5861 33.3927 34.6876 35.2154 34.3751 36.4133C33.797 38.6318 34.2501 39.6317 35.1017 39.8609C35.4845 39.9651 36.0314 39.7255 36.4376 39.4963C37.041 39.2284 37.6099 38.8385 38.1244 38.3402C39.101 37.3819 40.0455 36.0383 39.983 34.2155C39.9596 33.3927 39.7877 32.5698 39.5611 31.7782C40.7877 31.0908 42.3807 30.7158 44.412 31.0283C48.762 31.7053 49.6136 35.33 49.4495 36.8403C49.2854 38.3506 48.3714 39.1943 48.0667 39.4443C47.762 39.6942 47.6682 39.788 47.6917 39.9755C47.7307 40.2463 47.8714 40.2359 48.1292 40.1734C48.4886 40.09 50.4097 38.9443 50.4956 36.1424C50.6206 32.6011 48.0667 28.7056 43.5424 28.7368L43.5448 28.7389ZM10.0147 43.8106C8.57794 45.9041 6.56229 46.6958 5.69588 46.0291C4.76618 45.3084 5.13337 42.2274 6.90605 39.9963C7.98418 38.6422 9.37404 37.3923 10.2959 36.6216C10.5069 36.4549 10.8116 36.2049 11.1866 35.9029C11.2491 35.8508 11.2803 35.83 11.2803 35.83C11.3506 35.7675 11.4288 35.7154 11.5069 35.6529C12.1545 38.8193 11.5303 41.6108 10.0147 43.8085V43.8106ZM20.5117 34.2905C20.0117 35.9258 18.9577 40.0921 18.3171 39.8734C17.7702 39.6859 17.4343 36.5091 18.2077 33.3843C18.5984 31.8115 19.4265 29.9367 19.9187 29.2076C20.707 28.0306 21.5742 27.6556 21.7773 28.1243C22.0508 28.7389 20.8242 33.2698 20.5117 34.2905ZM29.1836 39.8109C28.9727 39.9567 28.7774 40.0505 28.6836 39.9776C28.6133 39.9255 28.7696 39.7276 28.7696 39.7276C28.7696 39.7276 29.8555 38.1756 30.2852 37.4673C30.5352 37.0507 30.8243 36.5612 31.136 36.0195C31.136 36.0716 31.1438 36.1237 31.1438 36.1862C31.1337 38.0506 29.7907 39.3109 29.1813 39.8109H29.1836ZM35.8697 37.7798C35.7134 37.634 35.7369 37.1444 36.2603 35.6237C36.4634 35.03 36.9314 34.0301 37.7447 33.0719C37.8368 33.4346 37.8868 33.8139 37.8931 34.1968C37.8853 36.5403 36.6275 37.4153 35.8704 37.7798H35.8697Z" fill="#00CCCC"/>
</svg>
